<svg xmlns="http://www.w3.org/2000/svg" xmlns:xlink="http://www.w3.org/1999/xlink" version="1.1" id="Layer_1" x="0px" y="0px" width="100px" height="100px" viewBox="0 0 100 100" enable-background="new 0 0 100 100" xml:space="preserve">
<g>
	<path fill="#000000" d="M88,27H76c-2.209,0-4,1.791-4,4s1.791,4,4,4h8v43.167c0,1.195-0.326,2.127-0.97,2.767   c-0.669,0.666-1.694,1.046-2.815,1.046c-0.009,0-0.018,0-0.026,0c-0.043-0.001-0.085,0-0.127,0.001   C78.754,81.993,52.02,81.998,31.783,82c0.352-1.157,0.551-2.433,0.551-3.833V35H48c2.209,0,4-1.791,4-4s-1.791-4-4-4h-1.437v-7.646   c0-2.209-1.791-4-4-4H12.666c-2.209,0-4,1.791-4,4v58.813c0,7.673,6.121,11.812,11.881,11.812c0.098,0,0.195-0.011,0.293-0.013   C20.949,89.976,21.055,90,21.168,90l56.47-0.014c0.812-0.001,1.681-0.002,2.51-0.09v0.083c0.021,0,0.044,0,0.066,0   c3.221,0,6.301-1.228,8.458-3.374C90.85,84.439,92,81.521,92,78.167V31C92,28.791,90.209,27,88,27z M16.666,23.354h21.897V27   H28.334c-2.209,0-4,1.791-4,4v47.167c0,3.537-2.898,3.812-3.787,3.812c-0.647,0-3.881-0.184-3.881-3.812V23.354z"/>
	<path fill="#000000" d="M47.248,44.208c-1.562,1.562-1.562,4.095,0,5.657l11.961,11.96c0.008,0.007,0.016,0.012,0.023,0.019   c0.18,0.178,0.376,0.339,0.588,0.48c0.096,0.064,0.199,0.108,0.3,0.163c0.129,0.07,0.253,0.148,0.39,0.205   c0.121,0.05,0.248,0.078,0.374,0.116c0.124,0.037,0.245,0.085,0.374,0.11c0.205,0.041,0.414,0.055,0.622,0.063   c0.054,0.002,0.104,0.016,0.159,0.016c0.08,0,0.155-0.019,0.234-0.023c0.182-0.011,0.362-0.02,0.541-0.055   c0.158-0.031,0.307-0.087,0.458-0.136c0.096-0.031,0.194-0.051,0.287-0.089c0.177-0.073,0.341-0.169,0.503-0.265   c0.062-0.036,0.127-0.062,0.186-0.102c0.229-0.15,0.439-0.323,0.631-0.517l11.949-11.948c1.562-1.562,1.562-4.095,0.001-5.657   c-1.562-1.562-4.095-1.562-5.657,0l-5.133,5.132V16c0-2.209-1.791-4-4-4s-4,1.791-4,4v33.344l-5.135-5.135   C51.344,42.647,48.809,42.647,47.248,44.208z"/>
</g>
</svg>